# xmcd
#
# Track frame offsets:
#	150
#	10622
#	26515
#	42252
#	56107
#	74835
#	90935
#	105542
#	118107
#	129860
#	140782
#	160320
#	181295
#	198275
#	211860
#
# Disc length: 3078 seconds
#
# Revision: 2
# Processed by: cddbd v1.4b42PL0 Copyright (c) Steve Scherf et al.
# Submitted via: EZCDDA 4.3.2
#
DISCID=cd0c040f
DTITLE=Patrik Ömalm - 3:rd TIME AROUND
DYEAR=1900
DGENRE=
TTITLE0=Satter Shuffle
TTITLE1=Happy Birthday
TTITLE2=A Long Way To Walk
TTITLE3=The Man Behind The Music
TTITLE4=Cowards, Goodbye
TTITLE5=Reconsider Me, Baby
TTITLE6=Couldn't Care Less
TTITLE7=Let Me Glow In The Dark
TTITLE8=I'm Gonna Leave You Be
TTITLE9=Let's Walk Together
TTITLE10=My Baby's Gone
TTITLE11=From Every Quarrel To Every Kiss
TTITLE12=Don't Tell Me You Miss Me
TTITLE13=Fighting My Deamons
TTITLE14=No Instant Cure
EXTD=
EXTT0=
EXTT1=
EXTT2=
EXTT3=
EXTT4=
EXTT5=
EXTT6=
EXTT7=
EXTT8=
EXTT9=
EXTT10=
EXTT11=
EXTT12=
EXTT13=
EXTT14=
PLAYORDER=
